<?xml version="1.0" encoding="utf-8"?>
<!-- Generator: Adobe Illustrator 19.0.0, SVG Export Plug-In . SVG Version: 6.00 Build 0)  -->
<svg version="1.1"
	 id="svg2" xmlns:sodipodi="http://sodipodi.sourceforge.net/DTD/sodipodi-0.dtd" xmlns:inkscape="http://www.inkscape.org/namespaces/inkscape" xmlns:dc="http://purl.org/dc/elements/1.1/" xmlns:cc="http://creativecommons.org/ns#" xmlns:rdf="http://www.w3.org/1999/02/22-rdf-syntax-ns#" xmlns:svg="http://www.w3.org/2000/svg" sodipodi:docname="AngularJS-Shield.svg" inkscape:export-ydpi="90" inkscape:version="0.48.4 r9939" inkscape:export-filename="/usr/local/google/home/stephenfluin/AngularJS-Shield.png" inkscape:export-xdpi="90"
	 xmlns="http://www.w3.org/2000/svg" xmlns:xlink="http://www.w3.org/1999/xlink" x="0px" y="0px"
	 viewBox="-146.1 209.5 354.1 375.1" style="enable-background:new -146.1 209.5 354.1 375.1;" xml:space="preserve">
<style type="text/css">
	.st0{fill:#B3B3B3;}
	.st1{fill:#AF2B2D;}
	.st2{fill:#DF2E31;}
	.st3{fill:#F2F2F2;}
</style>
<sodipodi:namedview  guidetolerance="10" inkscape:cy="177.21499" fit-margin-top="0" pagecolor="#ffffff" gridtolerance="10" objecttolerance="10" borderopacity="1" fit-margin-left="0" bordercolor="#666666" inkscape:zoom="0.25757162" showgrid="false" inkscape:cx="171.15375" id="namedview4" fit-margin-bottom="0" fit-margin-right="0" inkscape:current-layer="g10" inkscape:window-maximized="0" inkscape:window-y="312" inkscape:window-x="2290" inkscape:window-height="697" inkscape:window-width="1393" inkscape:pageopacity="0" inkscape:pageshadow="2">
	</sodipodi:namedview>
<g id="g10" transform="matrix(1.25,0,0,-1.25,-188.84625,636.71875)" inkscape:label="ink_ext_XXXXXX" inkscape:groupmode="layer">
	<g id="g12" transform="scale(0.1,0.1)">
		<path id="path14" inkscape:connector-curvature="0" class="st0" d="M1754,3340.2L414.8,2868.9l211.6-1754.6l1129-620.5
			l1134.9,628.9l211.5,1754.6L1754,3340.2z"/>
		<path id="path16" inkscape:connector-curvature="0" class="st1" d="M2968.3,2775.9L1750.9,3191V642l1020.2,564.6L2968.3,2775.9z"
			/>
		<path id="path18" inkscape:connector-curvature="0" class="st2" d="M565.1,2768.4l181.3-1569.2L1750.9,642v2549L565.1,2768.4
			L565.1,2768.4z"/>
		<path id="path20" inkscape:connector-curvature="0" class="st3" d="M2033.1,1923.2l-280,584.6l-246.5-584.6L2033.1,1923.2
			L2033.1,1923.2z M2139.8,1677.3h-742.1l-166-415.3l-308.8-5.7l828,1842.1l856.9-1842.1h-286.2L2139.8,1677.3L2139.8,1677.3z"/>
		<path id="path22" inkscape:connector-curvature="0" class="st0" d="M1750.9,3098.4l2.2-590.6l279.7-585.1h-281.3l-0.6-245
			l388.9-0.4l181.8-421l295.5-5.5L1750.9,3098.4z"/>
	</g>
</g>
</svg>
