<?xml version="1.0" encoding="utf-8"?>
<!-- Generator: Adobe Illustrator 19.0.0, SVG Export Plug-In . SVG Version: 6.00 Build 0)  -->
<svg version="1.1"
	 id="svg2" xmlns:dc="http://purl.org/dc/elements/1.1/" xmlns:cc="http://creativecommons.org/ns#" xmlns:rdf="http://www.w3.org/1999/02/22-rdf-syntax-ns#" xmlns:svg="http://www.w3.org/2000/svg"
	 xmlns="http://www.w3.org/2000/svg" xmlns:xlink="http://www.w3.org/1999/xlink" x="0px" y="0px" viewBox="-205 334 200 126"
	 style="enable-background:new -205 334 200 126;" xml:space="preserve">
<style type="text/css">
	.st0{fill:#003366;}
</style>
<g id="layer1" transform="translate(0,-952.36218)">
	<g id="g4088" transform="translate(-2.627806,4.004985)">
		<path id="path3938" class="st0" d="M-101.6,1377.2h-10.6v-50.2h10.6V1377.2z"/>
		<path id="path3950" class="st0" d="M-83.9,1336.4h12.4c3.1,0,4.8,1.7,4.8,4.6v4.5c0,2.9-1.7,6.3-4.8,6.3h-12.4V1336.4
			L-83.9,1336.4z M-63.2,1377.3h11.6l-12.3-17.3c4-1.5,6.5-6,6.5-10.5v-12.8c0-5.8-3.8-9.6-9.6-9.6h-16.3h-11.1v50.3h10.5v-16.6h10
			L-63.2,1377.3z"/>
		<path id="path3954" class="st0" d="M-12.4,1377.2l-14.9-50.2h-3.9h-6.6h-3.9l-14.9,50.2h10.5l11.6-39.1l5.9,19.8h-5.9l-4.1,9H-26
			l3.1,10.3H-12.4z"/>
		<path id="path3958" class="st0" d="M-120,1366.6v-39.6h-10.3v37.3c0,5.9-2.7,6.3-3.5,6.6c-1.3,0.5-3.5,0.8-3.5,0.8l2.5,8.9
			C-118.1,1380.1-120,1366.6-120,1366.6"/>
		<path id="path3962" class="st0" d="M-192.4,1327.2c0,0-0.5,10.2,14.7,25.2c15.2,14.9,16.9,21,16.1,25.2h11.1c0,0,1-17.3-16.1-29.5
			c0,0-11.8-10.5-13.7-18.8c0,0-5.8,0-9.8-3.3C-190.2,1326-192.4,1324.7-192.4,1327.2"/>
		<path id="path3966" class="st0" d="M-168.8,1350.9c3.1,2.2,5.5,4.5,7.5,6.9c1.5-1.6,3.1-3.2,4.9-5c15.2-14.9,14.7-25.5,14.7-25.5
			c0-2.5-2.2-1.1-2.2-1.1c-4,3.2-9.8,3.3-9.8,3.3c-1.9,8.3-13.7,19-13.7,19c-0.8,0.6-1.5,1.1-2.3,1.7
			C-169.1,1350.6-168.8,1350.9-168.8,1350.9"/>
		<path id="path3970" class="st0" d="M-169,1367c-2-2.5-4.6-5.5-8-9c-7.1,10.1-6.5,20.2-6.5,20.2h11.1
			C-173,1375.6-172.5,1372.3-169,1367"/>
		<path id="path3974" class="st0" d="M-172.6,1330.2h10.9c0,0,1.4-0.2,1.1,1.7c-0.5,2.7-6.4,8.2-6.4,8.2s-4.3-4-6.2-7.8
			C-173.2,1332.2-174,1330.2-172.6,1330.2"/>
		<path id="path3978" class="st0" d="M-147.8,1318.8c0,2.6-2.1,4.8-4.8,4.8c-2.6,0-4.8-2.1-4.8-4.8c0-2.6,2.1-4.8,4.8-4.8
			S-147.8,1316.2-147.8,1318.8"/>
		<path id="path3982" class="st0" d="M-176,1318.8c0,2.6-2.1,4.8-4.8,4.8s-4.8-2.1-4.8-4.8c0-2.6,2.1-4.8,4.8-4.8
			S-176,1316.2-176,1318.8"/>
		<path id="path3986" class="st0" d="M-161.6,1315c0,2.6-2.1,4.8-4.8,4.8c-2.6,0-4.8-2.1-4.8-4.8c0-2.6,2.1-4.8,4.8-4.8
			C-163.8,1310.2-161.6,1312.3-161.6,1315"/>
	</g>
</g>
</svg>
