<?xml version="1.0" encoding="utf-8"?>
<!-- Generator: Adobe Illustrator 19.0.0, SVG Export Plug-In . SVG Version: 6.00 Build 0)  -->
<svg version="1.1"
	 id="Capa_1" xmlns:dc="http://purl.org/dc/elements/1.1/" xmlns:cc="http://creativecommons.org/ns#" xmlns:rdf="http://www.w3.org/1999/02/22-rdf-syntax-ns#" xmlns:svg="http://www.w3.org/2000/svg" xmlns:sodipodi="http://sodipodi.sourceforge.net/DTD/sodipodi-0.dtd" xmlns:inkscape="http://www.inkscape.org/namespaces/inkscape" sodipodi:docname="Kinect logo.svg" inkscape:version="0.48.2 r9819"
	 xmlns="http://www.w3.org/2000/svg" xmlns:xlink="http://www.w3.org/1999/xlink" x="0px" y="0px" viewBox="51 316.2 817 160.8"
	 style="enable-background:new 51 316.2 817 160.8;" xml:space="preserve">
<style type="text/css">
	.st0{fill:#6A47BD;}
</style>
<sodipodi:namedview  inkscape:cy="171.29249" inkscape:cx="594.91295" inkscape:zoom="1" showgrid="false" guidetolerance="10" gridtolerance="10" objecttolerance="10" bordercolor="#666666" pagecolor="#ffffff" borderopacity="1" id="namedview24" inkscape:current-layer="Capa_1" inkscape:window-maximized="1" inkscape:window-y="-8" inkscape:window-x="-8" inkscape:window-height="837" inkscape:window-width="1600" inkscape:pageshadow="2" inkscape:pageopacity="0">
	</sodipodi:namedview>
<path id="path6" inkscape:connector-curvature="0" class="st0" d="M254.9,318.5v156h-35.2v-156H254.9z"/>
<path id="path8" inkscape:connector-curvature="0" class="st0" d="M285.4,474.5v-156h41.2l32.4,57.2c9.3,16.4,18.3,35.9,25.5,53.5
	h0.5c-2.1-20.6-2.8-41.6-2.8-65.3v-45.4h32.4v156h-37l-33.3-60.2c-9.3-16.7-19.7-36.8-27.1-55.1h-0.9c1.2,20.8,1.6,42.8,1.6,68.3v47
	H285.4L285.4,474.5z"/>
<path id="path10" inkscape:connector-curvature="0" class="st0" d="M537.8,408.5h-57.4v37h64.1v28.9h-99.3v-156h96v28.9h-60.9v32.4
	h57.4V408.5z"/>
<path id="path12" inkscape:connector-curvature="0" class="st0" d="M682.9,470.3c-6.2,3-21.1,6.7-39.8,6.7
	c-53.9,0-81.7-33.8-81.7-78.2c0-53.2,37.9-82.6,85.2-82.6c18.3,0,32.2,3.5,38.4,6.9l-7.4,27.8c-6.9-3-16.9-5.8-29.6-5.8
	c-27.8,0-49.5,16.9-49.5,51.6c0,31.2,18.5,50.9,49.7,50.9c10.9,0,22.4-2.1,29.6-5.1L682.9,470.3L682.9,470.3z"/>
<path id="path14" inkscape:connector-curvature="0" class="st0" d="M739.8,348.1h-42.1v-29.6h119.9v29.6H775v126.3h-35.2V348.1z"/>
<polygon id="K" class="st0" points="206.7,474.4 149,394.4 203.1,318.2 162,318.2 112.6,394.2 112.6,318.2 77,318.2 77,474.4 
	112.6,474.4 112.6,398.6 162.5,474.4 "/>
<g id="TM">
	<g id="g18">
		<path id="path20" class="st0" d="M823.9,318.7h7.1v1.7h-2.5v9.7h-2.1v-9.7h-2.5L823.9,318.7L823.9,318.7z"/>
		<path id="path22" class="st0" d="M834.4,330h-2.1v-11.4h3.4l1.1,5.3c0.2,0.9,0.3,1.7,0.4,2.6h0c0.1-1.1,0.2-1.9,0.3-2.6l1.1-5.3
			h3.4V330h-2.1v-3.6c0-2.3,0-4.5,0.2-6.8h0l-2.3,10.3h-1.3l-2.2-10.3h-0.1c0.1,2.3,0.2,4.5,0.2,6.8L834.4,330L834.4,330z"/>
	</g>
</g>
</svg>
