<?xml version="1.0" encoding="utf-8"?>
<!-- Generator: Adobe Illustrator 19.0.0, SVG Export Plug-In . SVG Version: 6.00 Build 0)  -->
<svg version="1.1" id="Layer_4" xmlns="http://www.w3.org/2000/svg" xmlns:xlink="http://www.w3.org/1999/xlink" x="0px" y="0px"
	 viewBox="0 0 407.5 116" style="enable-background:new 0 0 407.5 116;" xml:space="preserve">
<style type="text/css">
	.st0{fill:url(#SVGID_1_);}
	.st1{fill:url(#SVGID_2_);}
	.st2{fill:url(#SVGID_3_);}
	.st3{fill:#C0BFBF;}
	.st4{fill:#FFFFFF;}
</style>
<g>
	
		<linearGradient id="SVGID_1_" gradientUnits="userSpaceOnUse" x1="-220.1211" y1="-781.2964" x2="-255.2247" y2="-781.5362" gradientTransform="matrix(-0.9771 -0.323 0.2901 -0.8773 23.2102 -698.8443)">
		<stop  offset="0.2308" style="stop-color:#999875"/>
		<stop  offset="0.5632" style="stop-color:#9B9977"/>
		<stop  offset="0.6829" style="stop-color:#A09F7E"/>
		<stop  offset="0.7683" style="stop-color:#A9A889"/>
		<stop  offset="0.8373" style="stop-color:#B7B69A"/>
		<stop  offset="0.8964" style="stop-color:#C9C7B0"/>
		<stop  offset="0.9482" style="stop-color:#DEDDCB"/>
		<stop  offset="0.9944" style="stop-color:#F8F6EB"/>
		<stop  offset="1" style="stop-color:#FBF9EF"/>
	</linearGradient>
	<path class="st0" d="M31.3,112.1l-3-1c0,0,0.4-15.1-5.1-16.1c-3.6-4.2,0.6-177.4,13.6-0.6c0,0-4.5,2.2-5.3,6
		C30.7,104.2,31.3,112.1,31.3,112.1z"/>
	
		<linearGradient id="SVGID_2_" gradientUnits="userSpaceOnUse" x1="-214.7148" y1="-719.8593" x2="-265.2173" y2="-807.3323" gradientTransform="matrix(-0.9771 -0.323 0.2901 -0.8773 23.2102 -698.8443)">
		<stop  offset="0" style="stop-color:#48A547"/>
		<stop  offset="1" style="stop-color:#3F9143"/>
	</linearGradient>
	<path class="st1" d="M32.9,97.5c0,0,25.9-17,19.8-52.4C46.9,19.4,33.1,10.9,31.7,7.7c-1.6-2.3-3.3-6.3-3.3-6.3L29.5,73
		C29.5,73,27.2,94.9,32.9,97.5z"/>
	
		<linearGradient id="SVGID_3_" gradientUnits="userSpaceOnUse" x1="-210.0882" y1="-782.7403" x2="-245.8855" y2="-758.6953" gradientTransform="matrix(-0.9771 -0.323 0.2901 -0.8773 23.2102 -698.8443)">
		<stop  offset="0" style="stop-color:#41A247"/>
		<stop  offset="0.3523" style="stop-color:#4BA74B"/>
		<stop  offset="0.9557" style="stop-color:#67B554"/>
		<stop  offset="1" style="stop-color:#69B655"/>
	</linearGradient>
	<path class="st2" d="M26.8,98.5c0,0-24.3-16.6-22.9-45.8C5.4,23.5,22.5,9.1,25.8,6.5c2.2-2.3,2.2-3.2,2.4-5.5
		c1.5,3.2,1.3,48.5,1.4,53.8C30.3,75.5,28.5,94.6,26.8,98.5z"/>
	<path class="st3" d="M303.8,44.2c1.4,0,6.7,0.2,9.1,0.2c4.6,0,7.8-0.2,16.3-0.2c7.2,0,13.2,1.9,17.6,5.7c5.2,4.5,8,10.8,8,18.5
		c0,10.9-5,17.2-10,20.8c-5,3.7-11.4,5.8-20.7,5.8c-4.9,0-13.3-0.2-20.4-0.2h-0.1c-0.3-0.6,0.6-3.2,1.2-3.2c1.9-0.2,2.4-0.3,3.3-0.7
		c1.5-0.6,1.8-1.4,2-4c0.2-5,0.2-11,0.2-17.8c0-4.8,0.1-14.3-0.1-17.3c-0.2-2.5-1.3-3.1-3.4-3.6c-1.1-0.2-2.5-0.5-4.6-0.7
		C302.2,46.8,303.4,44.6,303.8,44.2z M320.1,89.1c1.7,1.4,5.2,1.9,8.2,1.9c3.9,0,7.8-0.7,11.5-4.1c3.8-3.5,6.5-8.8,6.5-17.3
		c0-8.2-3.1-14.8-9.5-18.7c-3.6-2.3-8.3-3.1-13.6-3.1c-1.6,0-3.1,0.1-4,0.5c-0.2,0.2-0.7,0.8-0.7,1.1c-0.2,1.5-0.2,12.5-0.2,19.1
		c0,6.7,0,16.1,0.2,17.2C318.6,86.6,319.1,88.3,320.1,89.1z"/>
	<path class="st3" d="M361.8,44.2c0.7,0,2.9,0.2,8.5,0.2c5.2,0,9.5-0.2,14.6-0.2c6.3,0,15,2.3,15,11.6c0,4.6-3.3,8.3-7.5,10.1
		c-0.2,0.1-0.2,0.2,0,0.3c6,1.5,11.4,5.2,11.4,12.4c0,6.9-4.3,11.3-10.6,14c-3.8,1.7-8.6,2.3-13.4,2.3c-3.7,0-13.5-0.4-19-0.3
		c-0.6-0.2,0.5-2.8,1-3.2c1.3-0.1,2.3-0.2,3.7-0.6c2-0.5,2.2-1.1,2.4-4c0.2-2.5,0.2-11.5,0.2-17.8c0-8.7,0.1-14.6,0-17.5
		c-0.1-2.3-0.9-3-2.5-3.4c-1.2-0.2-3.3-0.5-4.9-0.7C360.1,46.9,361.4,44.5,361.8,44.2z M395.1,80.4c0-7.1-5.2-11.1-14.8-11.1
		c-0.4,0-3.4-0.1-4.2,0.1c-0.2,0.1-0.5,0.2-0.5,0.4c0,5.1-0.1,13.2,0.2,16.5c0.2,1.4,1.1,3.3,2.4,3.9c1.3,0.7,4.3,0.9,6.3,0.9
		C390.1,91,395.1,87.8,395.1,80.4z M376.5,48.1c-0.3,0.1-0.7,0.9-0.7,1.3c-0.1,2.9-0.2,10.5-0.2,15.7c0,0.2,0.2,0.4,0.4,0.4
		c1.1,0.1,3.7,0.2,5.9,0.2c3.1,0,4.9-0.4,5.9-0.9c2.6-1.3,3.8-4.1,3.8-7.2c0-7-4.9-9.7-12.2-9.7C379,48,377.6,48,376.5,48.1z"/>
	<path class="st4" d="M69.3,94.8C69.2,94.6,69,94,69,93.2c0-0.6,0.1-1,0.2-1.1c1.5-0.2,2.3-0.4,3.1-0.6c1.4-0.4,2-1.1,2.1-3
		c0.2-4.4,0.3-12.5,0.2-18.3l0-0.2c0-0.6,0-1.5-0.8-2.1c-1.1-0.7-2.5-1.4-4.3-1.9c-0.7-0.2-1.1-0.6-1-1c0-0.4,0.5-0.9,1.3-1.1
		c2.4-0.2,8.6-1.7,11-2.8c0.1,0.2,0.4,0.6,0.3,1.2c0,0.3,0,0.5-0.1,0.8c-0.1,0.8-0.1,1.7-0.1,2.6c0,0.3,0.3,0.5,0.6,0.5
		c0.2,0,0.3-0.1,0.4-0.2c4.6-3.6,8.8-4.9,10.9-4.9c3.5,0,6.2,1.7,8.4,5.1c0.1,0.2,0.3,0.3,0.5,0.3c0.2,0,0.3-0.1,0.4-0.2
		c4.3-3.2,8.5-5.2,11.3-5.2c6.7,0,10.7,5,10.7,13.4c0,2.4,0,5.5,0,8.3c0,2.5,0,4.8,0,6.5c0,0.4,0.5,1.5,1.3,1.7c1,0.5,2.4,0.7,4.2,1
		l0.1,0c0.1,0.5-0.1,2.3-0.4,2.7c-0.4,0-1.1,0-1.8-0.1c-1.4-0.1-3.3-0.2-5.5-0.2c-4.4,0-6.8,0.1-9,0.2c-0.2-0.6-0.2-2.3,0-2.7
		c1.3-0.2,1.9-0.4,2.7-0.6c1.4-0.5,1.8-1.1,1.9-3c0-1.3,0.3-13.1-0.2-15.9c-0.4-2.9-2.6-6.3-7.4-6.3c-1.8,0-4.6,0.7-7.4,2.8
		c-0.2,0.2-0.3,0.5-0.3,0.7l0,0.1c0.3,1.5,0.3,3.3,0.3,5.9c0,1.5,0,3.1,0,4.7c0,3.2,0,6.3,0,8.6c0,1.6,1,2,1.7,2.3
		c0.4,0.1,0.7,0.2,1.1,0.3c0.6,0.2,1.3,0.3,2.3,0.5c0.1,0.3,0.1,1.2,0,2c-0.1,0.4-0.2,0.6-0.3,0.7c-2.5-0.1-5-0.2-8.7-0.2
		c-1.1,0-2.9,0-4.5,0.1c-1.3,0-2.5,0.1-3.2,0.1c-0.1-0.2-0.2-0.7-0.2-1.4c0-0.7,0.1-1.2,0.3-1.3c0.3-0.1,0.7-0.1,1-0.2
		c0.9-0.2,1.6-0.3,2.3-0.5c1.2-0.4,1.7-1,1.8-2.6c0.2-3.6,0.4-13.9-0.1-16.5c-0.9-4.2-3.2-6.3-7-6.3c-2.2,0-5.1,1.1-7.4,2.8
		c-0.4,0.3-0.7,1-0.7,1.7c0,1.2,0,2.7,0,4.3c0,5.2,0,11.7,0.1,14.5c0.1,0.9,0.4,1.9,2,2.3c0.4,0.1,1,0.2,1.7,0.3
		c0.4,0.1,0.9,0.1,1.3,0.2c0.2,0.4,0.1,2.2-0.2,2.7c-0.7,0-1.6,0-2.6-0.1c-1.5-0.1-3.4-0.2-5.6-0.2c-2.6,0-4.3,0.1-5.8,0.2
		C71,94.8,70.1,94.8,69.3,94.8L69.3,94.8z"/>
	<path class="st4" d="M151.7,95.6c-12.3,0-16.7-9-16.7-17.4c0-5.9,2.4-10.5,7.2-13.7c3.4-2.1,7.4-3.3,11.1-3.3
		c9.4,0,15.9,6.7,15.9,16.4c0,6.6-2.6,11.7-7.6,15C159.2,94,155.1,95.6,151.7,95.6L151.7,95.6z M150.4,64.6c-1.5,0-2.9,0.4-3.9,1.1
		c-2.8,1.7-4.3,5.2-4.3,10.2c0,9.5,4.7,16.1,11.5,16.1c2,0,3.6-0.6,5-1.8c2.1-1.7,3.2-5.2,3.2-10C161.9,70.9,157.3,64.6,150.4,64.6
		L150.4,64.6z"/>
	<path class="st4" d="M278.9,95.6c-12.3,0-16.7-9-16.7-17.4c0-5.9,2.4-10.5,7.2-13.7c3.4-2.1,7.4-3.3,11.1-3.3
		c9.4,0,15.9,6.7,15.9,16.4c0,6.6-2.6,11.7-7.6,15C286.4,94,282.3,95.6,278.9,95.6L278.9,95.6z M277.6,64.6c-1.5,0-2.9,0.4-3.9,1.1
		c-2.8,1.7-4.3,5.2-4.3,10.2c0,9.5,4.7,16.1,11.5,16.1c2,0,3.6-0.6,5-1.8c2.1-1.7,3.2-5.2,3.2-10C289.1,70.9,284.5,64.6,277.6,64.6
		L277.6,64.6z"/>
	<path class="st4" d="M236.5,114.9c-4.4,0-7.6-0.9-10.3-3c-2.6-2-3.8-5.1-3.8-7.1c0-0.6,0.1-2.2,1.4-3.6c0.8-0.9,2.5-2.5,6.7-5.3
		c0.1,0,0.2-0.2,0.2-0.3c0-0.2-0.1-0.3-0.3-0.3c-3.4-1.3-4.4-3.4-4.7-4.6c0,0,0-0.1,0-0.2c-0.1-0.5-0.2-0.9,0.4-1.3
		c0.5-0.3,1.2-0.8,2-1.3c1.2-0.7,2.5-1.5,3.3-2.1c0.1-0.1,0.2-0.3,0.1-0.5c0-0.2-0.1-0.3-0.3-0.4c-5-1.7-7.5-5.4-7.5-11.1
		c0-3.7,1.7-7,4.6-9.1c2-1.6,7.1-3.5,10.4-3.5l0.2,0c3.4,0.1,5.3,0.8,7.9,1.8c1.4,0.5,2.8,0.7,4.7,0.7c2.8,0,4-0.9,5.1-1.9
		c0.1,0.1,0.2,0.5,0.3,1.4c0.1,0.9-0.2,2.3-0.9,3.3c-0.6,0.8-1.9,1.4-3.1,1.4c-0.1,0-0.2,0-0.4,0c-1.3-0.1-1.9-0.3-1.9-0.3l-0.3,0.1
		c-0.1,0.1,0,0.3,0,0.5c0,0,0,0.1,0,0.1c0.2,0.7,0.5,2.6,0.5,3.1c0,5.9-2.3,8.5-4.9,10.4c-2.4,1.8-5.2,2.9-8.4,3.3h0
		c-0.1,0-0.4,0-1,0.1c-0.4,0-0.9,0.1-1,0.1l-0.1,0c-0.6,0.2-2,0.8-2,2.1c0,1.1,0.7,2.4,3.8,2.6c0.6,0,1.3,0.1,2,0.1
		c4.1,0.3,9.2,0.6,11.6,1.5c3.3,1.2,5.4,4.2,5.4,7.7c0,5.3-3.8,10.3-10.2,13.4C243,114.2,239.9,114.9,236.5,114.9L236.5,114.9z
		 M236,96.2c-1.4,0-2.5,0.4-3.1,0.8c-3,1.9-4.4,3.8-4.4,6c0,2.1,0.8,3.7,2.5,5.2c2.1,1.8,4.9,2.6,8.7,2.6c7.3,0,10.6-3.9,10.6-7.9
		c0-2.7-1.4-4.5-4.2-5.6C244,96.6,240.4,96.2,236,96.2L236,96.2z M236.5,64.3c-3.8,0-6.2,3-6.2,7.6c0,4.7,2.1,10.1,8,10.1
		c1,0,2.9-0.5,3.8-1.5c1.4-1.3,2.3-3.9,2.3-6.6C244.3,67.9,241.4,64.3,236.5,64.3L236.5,64.3z"/>
	<path class="st4" d="M216.5,91.9c-1.8-0.2-3.1-0.5-4.7-1.2c-0.2-0.2-0.6-0.9-0.6-1.1c-0.2-2.5-0.2-9.8-0.2-14.5
		c0-3.9-0.7-7.3-2.3-9.7c-2-2.7-4.7-4.4-8.3-4.4c-3.2,0-7.4,2.2-11,5.2c-0.1,0.1-0.6,0.6-0.6-0.2c0-0.8,0.1-2.4,0.2-3.4
		c0.1-1-0.5-1.5-0.5-1.5c-2.3,1.1-8.7,2.7-11.1,2.9c-1.7,0.3-2.1,2-0.3,2.6v0c0,0,0,0,0,0c1.9,0.6,3.2,1.2,4.2,1.8
		c0.7,0.6,0.6,1.4,0.6,2c0.1,5.4,0.1,13.7-0.2,18.2c-0.1,1.8-0.6,2.4-1.9,2.7l0.1,0c-1,0.2-1.8,0.4-3,0.6c-0.4,0.4-0.4,2.7,0,3.2
		c0.8,0,5-0.2,8.4-0.2c4.7,0,7.2,0.2,8.4,0.2c0.5-0.6,0.7-2.7,0.3-3.2c-1.4-0.1-2.4-0.2-3.4-0.5c-1.3-0.3-1.6-1-1.7-2.4
		c-0.2-3.8-0.2-11.9-0.2-17.4c0-1.5,0.4-2.3,0.9-2.7c1.6-1.5,4.3-2.4,6.7-2.4c2.3,0,3.8,0.7,5,1.7c1.6,1.3,2.1,3.1,2.3,4.5
		c0.3,3.1,0.2,9.2,0.2,14.5c0,2.9-0.2,3.6-1.3,4c-0.5,0.2-1.8,0.5-3.4,0.6c-0.5,0.5-0.3,2.7,0,3.2c2.1,0,4.6-0.2,8.2-0.2
		c4.5,0,7.4,0.2,8.5,0.2C216.7,94.5,216.9,92.4,216.5,91.9z"/>
</g>
</svg>
