<?xml version="1.0" encoding="utf-8"?>
<!-- Generator: Adobe Illustrator 19.0.0, SVG Export Plug-In . SVG Version: 6.00 Build 0)  -->
<svg version="1.1" id="svg115845" xmlns:svg="http://www.w3.org/2000/svg"
	 xmlns="http://www.w3.org/2000/svg" xmlns:xlink="http://www.w3.org/1999/xlink" x="0px" y="0px" viewBox="25 218.9 662.8 356.1"
	 style="enable-background:new 25 218.9 662.8 356.1;" xml:space="preserve">
<style type="text/css">
	.st0{fill:#EA1B22;}
</style>
<g id="layer1" transform="translate(-702.6538,-712.5837)">
	<g id="g16337">
		<path id="path16197" class="st0" d="M1005.7,1121.6h40.7l-21.5-34.6l-39.5,62.5h-18l48-75.1c2.1-3,5.6-4.9,9.4-4.9
			c3.7,0,7.2,1.8,9.2,4.7l48.2,75.2h-18l-8.5-14h-41.2L1005.7,1121.6z M1192.2,1135.5v-65.2h-15.2v71.6c0,2,0.8,3.9,2.2,5.3
			c1.5,1.5,3.4,2.3,5.6,2.3h69.5l9-14H1192.2z M940.1,1123.8c14.8,0,26.8-11.9,26.8-26.7s-12-26.8-26.8-26.8h-66.7v79.2h15.2v-65.2
			h50.4c7.1,0,12.8,5.8,12.8,12.8s-5.7,12.8-12.8,12.8l-43-0.1l45.5,39.6h22.1l-30.6-25.7H940.1z M779.7,1149.5
			c-21.9,0-39.6-17.7-39.6-39.6c0-21.9,17.7-39.6,39.6-39.6h46c21.9,0,39.6,17.8,39.6,39.6c0,21.9-17.7,39.6-39.6,39.6H779.7z
			 M824.7,1135.5c14.2,0,25.6-11.4,25.6-25.6c0-14.2-11.5-25.7-25.6-25.7h-44c-14.2,0-25.6,11.5-25.6,25.7
			c0,14.2,11.5,25.6,25.6,25.6H824.7z M1114,1149.5c-21.9,0-39.6-17.7-39.6-39.6c0-21.9,17.8-39.6,39.6-39.6h54.7l-8.9,14H1115
			c-14.2,0-25.7,11.5-25.7,25.7c0,14.2,11.5,25.6,25.7,25.6h54.9l-9,14H1114z M1300.3,1135.5c-11.7,0-21.6-7.8-24.7-18.7h65.1l9-14
			h-74.1c3-10.7,13-18.7,24.7-18.7h44.7l9-14h-54.8c-21.9,0-39.6,17.8-39.6,39.6c0,21.9,17.8,39.6,39.6,39.6h47l9-14H1300.3"/>
		<path id="path16199" class="st0" d="M1362.2,1078.7c0-3.9,3.1-7,7-7c3.9,0,7,3.1,7,7c0,3.9-3.1,7-7,7
			C1365.3,1085.7,1362.2,1082.6,1362.2,1078.7z M1369.2,1087.7c4.9,0,8.9-4,8.9-8.9c0-4.9-4-8.9-8.9-8.9c-4.9,0-8.9,4-8.9,8.9
			C1360.3,1083.7,1364.3,1087.7,1369.2,1087.7z M1368.4,1073.4c1.4,0,2,0.1,2.6,0.3c1.8,0.6,2,2.1,2,2.8c0,0.1,0,0.4-0.1,0.8
			c-0.1,0.4-0.3,1.1-1.2,1.7c-0.1,0.1-0.2,0.1-0.4,0.3l2.3,4.1h-2.2l-2-3.8h-1.4v3.8h-2v-10H1368.4z M1369.1,1078
			c0.6-0.1,1.3-0.1,1.6-0.6c0.2-0.3,0.3-0.5,0.3-0.9c0-0.5-0.3-0.9-0.8-1.2c-0.4-0.2-0.9-0.2-1.8-0.2h-0.6v2.9H1369.1"/>
	</g>
</g>
</svg>
