<?xml version="1.0" encoding="utf-8"?>
<!-- Generator: Adobe Illustrator 19.0.0, SVG Export Plug-In . SVG Version: 6.00 Build 0)  -->
<svg version="1.1" id="Layer_1" xmlns="http://www.w3.org/2000/svg" xmlns:xlink="http://www.w3.org/1999/xlink" x="0px" y="0px"
	 viewBox="944 -614 2500 2021" style="enable-background:new 944 -614 2500 2021;" xml:space="preserve">
<style type="text/css">
	.st0{fill:url(#SVGID_1_);}
	.st1{fill:url(#SVGID_2_);}
	.st2{fill:url(#SVGID_3_);}
	.st3{fill:#DDDDDD;}
</style>
<g transform="matrix(.569 0 0 .569 199.451 -82.735)">
	
		<linearGradient id="SVGID_1_" gradientUnits="userSpaceOnUse" x1="-73945.6484" y1="18311.9336" x2="-73143.8359" y2="18785.7129" gradientTransform="matrix(6.754030e-002 0 0 -6.754030e-002 8284.6943 2445.8359)">
		<stop  offset="0" style="stop-color:#909CA9"/>
		<stop  offset="1" style="stop-color:#EDEDEE"/>
	</linearGradient>
	<path class="st0" d="M4274.7,205.7l-462.8,151.1l-402.5,177.7l-112.6,29.8c-28.7,27.3-58.8,54.9-91.3,82.9
		c-35.7,30.8-68.9,58.8-94.4,79.1c-28.3,22.4-70.3,64.4-91.7,90.9c-31.9,39.9-57,82.2-67.8,114.7c-19.3,58.8-9.8,118.2,27.3,173.1
		c47.6,69.9,142.4,141.2,252.8,189.9c56.3,24.8,151.1,56.7,222.4,74.5c118.6,30,348,62.6,474.3,67.5c25.6,1,59.8,1,61.2,0
		c2.8-1.7,22.4-39.2,45.1-85.6c77.6-158.4,133.6-307.1,164-434c18.2-77,32.5-179.4,42-300.8c2.5-34,3.5-147.6,1.4-186.1
		c-3.1-62.9-8.8-114-17.5-164c-1.4-7.3-1.7-14-1-14.3c1.4-1,5.6-2.5,62.6-18.9L4274.7,205.7L4274.7,205.7L4274.7,205.7L4274.7,205.7
		z M4169.1,267.6c4.2,0,15.4,107.4,18.2,175.2c0.7,14.3,0.4,23.7-0.4,23.7c-2.8,0-59.1-33.2-99.3-58.4c-35-22-101.4-66.1-111.9-74.5
		c-3.5-2.5-3.1-2.8,25.6-12.6C4049.8,304.7,4165.2,267.6,4169.1,267.6z M3933.4,345.3c3.1,0,11.2,4.6,30.4,16.4
		c72,45.1,170,99.7,211.9,117.9c13,5.6,14.3,3.5-15.4,23.7c-63.6,43.4-143.1,86-240.2,129c-17.2,7.7-31.5,13.6-31.9,13.6
		c-0.7,0,1.4-8.8,4.2-19.3c23.5-87.1,36.7-175.2,37.4-245.9c0.4-35,0.4-35,3.5-36.1C3932.7,345.3,3933,345.3,3933.4,345.3
		L3933.4,345.3z M3884.7,363.8c2.1,2.1,0.7,80.4-2.1,101.8c-6.3,51-16.1,98.6-32.1,152.1c-3.8,13-7.3,23.7-8,24.5
		c-1.4,1.7-49.3-45.1-65-63.3c-27.3-31.5-48.6-62.9-64.4-93.8c-8-15.7-20.6-46.5-19.6-47.6C3699,433.8,3883.4,362.4,3884.7,363.8
		L3884.7,363.8z M3656,453.7c0.4,0,0.7,0,1,0.4c0.7,0.7,3.1,6.3,5.2,12.6c11.2,30.4,36.3,75.2,58.1,103.9
		c23.7,31.5,54.9,65,80.8,87.1c8.4,7,16.1,13.6,17.2,14.7c2.1,2.1,2.8,1.7-54.2,23.5c-66.1,25.2-138.1,50.4-220.7,77
		c-19.7,6.4-39.4,12.8-59.1,19.3c-3.1,1-2.1-0.7,7-15.1c40.9-64,103.2-189.6,138.2-278.4c5.9-15.4,11.9-30.8,13-34.2
		c1.4-4.9,3.1-6.7,7.7-9.1C3652.5,454.4,3655,453.7,3656,453.7L3656,453.7z M3586.1,482.7c1,0.7-16.8,38.1-34.2,72.4
		c-34,66.1-71,131.1-120.6,210.2c-8.4,13.6-16.4,26.2-17.5,27.7c-1.7,2.5-2.5,1.7-8-9.1c-11.9-23.5-21.6-53.5-26.9-81.2
		c-5.2-27.3-4.2-74.9,1.7-104.2c4.6-21.7,4.2-21.4,14.7-26.6C3439.9,549.2,3584.7,481.4,3586.1,482.7L3586.1,482.7z M4189.3,507.2
		v14.7c0,78-8.4,185-20.6,263c-2.1,13.6-3.8,24.8-4.2,25.2c0,0-10.1-2.8-22-6.3c-52.5-16.4-109.5-40.5-160.9-68.9
		c-34-18.5-83.3-48.9-81.8-50.4c0.4-0.4,15.1-8,32.1-17.2c68.6-35.7,134.3-74.1,191.3-112.3c21.4-14.3,53.5-37.4,60.5-43.7
		L4189.3,507.2L4189.3,507.2z M3322,610.7c1.4,0,1,2.8-1,15.4c-1.4,9.1-3.1,25.8-3.8,37.4c-2.8,51,5.6,88.9,30.8,140.6
		c7,14.3,12.6,26.2,12.2,26.6c-2.5,2.1-234,69.9-306.7,89.8c-21.6,5.9-40.5,11.2-42,11.5c-2.5,0.7-2.8,0.4-1.7-5.6
		c8-51.4,47.2-118.6,101.8-175.2c36.3-37.8,65.4-59.8,115.1-88.1c35.7-20.3,90.6-50.7,94.8-52.1
		C3321.3,610.7,3321.6,610.7,3322,610.7L3322,610.7z M3867.6,708.3c0.4-0.4,8.8,4.2,18.9,10.1c74.9,43.4,179.1,83.5,267.9,104.2
		l8,1.7l-11.2,6.3c-46.5,25.8-199.3,89.6-355.7,147.9c-22.7,8.4-45.1,16.8-49.3,18.5s-8,2.8-8,2.5c0-0.4,6.3-12.6,14.3-27.7
		c43.7-81.8,87.7-181.5,110.2-250.7C3865.5,714.6,3867.3,708.6,3867.6,708.3L3867.6,708.3z M3812,726.5c0.4,0.4-2.5,7.7-5.9,16.1
		c-30.4,73.8-70.3,154.2-121.4,244.4c-13,23.1-23.7,41.6-24.1,41.6c-0.4,0-10.9-6.3-23.5-14c-74.1-45.5-139.9-101.4-182.9-155.7
		l-6.3-7.7l31.9-8.8c114.1-31.1,210.9-64.7,307.1-106C3800.5,731,3811.7,726.5,3812,726.5z M4157.6,847.1
		C4157.6,847.1,4157.9,847.5,4157.6,847.1c0.4,8-17.5,80.1-32.1,132.2c-12.2,43.7-22.7,78-42,138.5c-8.4,26.6-15.7,48.6-16.1,48.6
		c-0.4,0-2.5-0.4-4.6-1c-103.9-18.9-196.9-45.1-284.3-80.1c-24.5-9.8-59.4-25.6-61.5-27.3c-0.7-0.7,20.3-10.5,46.8-22
		c159.2-69.6,324.2-148.7,380.8-182.5C4151.3,849.2,4156.5,847.1,4157.6,847.1L4157.6,847.1z M3359.8,874.4
		c0.7,0.7-43.7,64.7-106,151.8c-21.6,30.4-46.8,66.1-56.3,79.4c-9.4,13.3-23.7,34.2-31.9,46.8l-14.7,22.7l-15.7-13.3
		c-18.5-15.4-50.7-48.3-65-66.5c-30-37.4-50.4-77-58.4-112.9c-3.8-16.8-3.8-25.2-0.4-26.2c5.2-1.4,98.6-23.5,186.1-43.7
		c48.6-11.2,104.9-24.5,125.2-29.4C3343,878.3,3359.4,874.4,3359.8,874.4L3359.8,874.4z M3404.5,891.6l11.2,12.6
		c50.4,56.3,101.8,97.9,164,134.3c11.2,6.3,19.6,11.9,18.9,12.2c-2.5,1.7-216.1,77.6-315.1,111.9c-55.6,19.6-101.4,35.3-101.8,35.3
		c-0.4,0-3.5-2.1-7-4.6l-6.3-4.6l10.1-14.7c32.9-47.6,74.1-99.7,164-208.1L3404.5,891.6L3404.5,891.6z M3683.7,1091.3
		c0.4-0.4,15.7,5.2,34.6,12.2c45.5,17.2,81.4,27.9,129.8,40.2c59.4,15.1,145.5,29.8,196.2,34c7.7,0.7,11.9,1.4,10.5,2.5
		c-2.5,1.4-53.9,18.5-91.7,30.4c-60.2,18.9-243.8,73.1-393.5,116.1c-27.7,8-51.4,14.7-52.8,15.1c-3.5,0.7-15.1-2.5-15.1-3.8
		c0-0.7,8.4-11.5,18.5-23.5c50.4-60.2,100.3-127.3,142-190.9C3673.8,1106,3683.7,1091.7,3683.7,1091.3L3683.7,1091.3z M3622.1,1093
		c0.4,0.4-24.5,40.2-67.8,108.7c-18.5,29-39.2,61.9-46.5,73.4c-7,11.2-17.5,28.7-23.5,38.4l-10.1,17.8l-5.2-1.4
		c-12.6-3.5-101.1-34.6-124.6-44.1c-29-11.5-59.1-25.6-81.4-37.4c-27.9-15.1-62.9-37.4-60.2-38.1c0.7-0.4,48.6-13.3,106.3-29
		c153.2-41.6,238.1-65.7,293.8-83.3C3613,1095.1,3621.8,1092.7,3622.1,1093L3622.1,1093z M4057.5,1195.1h0.4
		c1.4,3.5-55.2,160.9-75.9,210.6c-4.6,11.2-6.3,14-8.8,13.6c-5.9-0.4-88.1-11.9-138.2-19.3c-87.1-13.3-233.3-38.8-270-47.2l-8.4-1.7
		l52.1-11.9c112-25.2,165.8-38.8,220.3-55.6c68.9-21,137.1-47.2,206-79.4C4046,1199.3,4055.1,1195.5,4057.5,1195.1L4057.5,1195.1z"
		/>
	
		<linearGradient id="SVGID_2_" gradientUnits="userSpaceOnUse" x1="-73885.9297" y1="45899.4727" x2="-73240.7734" y2="45899.4727" gradientTransform="matrix(6.754030e-002 0 0 -6.754030e-002 8284.6943 2445.8359)">
		<stop  offset="0" style="stop-color:#939FAB"/>
		<stop  offset="1" style="stop-color:#DCDEE1"/>
	</linearGradient>
	<path class="st1" d="M3797.6-873c-7.7-1-131.9,43.7-211.9,76.2c-108.1,44.1-192,86-243.8,122.4c-19.3,13.6-43.4,37.8-47.2,47.2
		c-1.4,3.5-2.1,7.7-2.1,11.9l46.8,44.4l111.6,35.7l265.4,47.6l303.6,52.1l3.1-26.2c-1,0-1.7-0.4-2.8-0.4l-39.9-6.3l-8-14.3
		c-41.3-72.8-86.7-163-113.3-223.8c-20.6-47.2-40.2-101.8-51-141C3802.2-871.1,3801.5-872.6,3797.6-873L3797.6-873L3797.6-873
		L3797.6-873z M3792.1-855.1h0.4c0.4,0.4,1.7,10.1,3.1,21.6c5.9,48.9,16.8,96.1,34,147.3c13,38.4,13,36.3-2.1,31.9
		c-35.7-9.8-195.5-37.4-311.3-53.5c-18.5-2.5-34.2-4.9-34.2-5.2c-1.4-1.4,83.5-45.8,121-63.3
		C3650.8-798.5,3782.3-853.3,3792.1-855.1L3792.1-855.1z M3454.9-698.4l13.6,4.6c74.1,25.2,260.6,60.8,363.4,69.2
		c11.5,1,21.4,2.1,21.7,2.1c0.4,0.4-9.4,5.6-22,11.5c-49.7,24.8-104.2,55.2-142,78.7c-11.2,7-21.4,12.6-22.7,12.6
		c-1.4,0-8.8-1.4-16.4-2.5l-14-2.1l-35-34.2c-61.5-59.8-109.9-106-128.4-123.4L3454.9-698.4z M3440.9-687.6l49.3,61.5
		c26.9,34,54.2,67.1,60.2,74.5c5.9,7.3,10.9,13.3,10.5,13.6c-1.4,1-71.3-12.6-108.4-21c-38.1-8.8-53.9-13-77.3-20.3l-19.3-6.3v-4.9
		c0.4-23.5,30-58.4,80.4-94L3440.9-687.6L3440.9-687.6z M3859.9-603.6c1.4,0,3.1,3.1,7.3,12.6c11.9,26.2,48.9,96.9,58.1,110.5
		c2.8,4.6,7.7,4.9-41.6-3.1c-118.6-19.3-156.7-25.6-156.7-26.2c0-0.4,3.5-2.8,8-5.2c36.7-20.3,73.8-46.2,106.6-73.8
		c8-6.7,15.4-13,16.8-14C3858.9-603.6,3859.5-604,3859.9-603.6L3859.9-603.6z"/>
	
		<radialGradient id="SVGID_3_" cx="41682.1367" cy="18940.3027" r="856.5755" gradientTransform="matrix(-6.486600e-002 -9.745467e-003 -1.970993e-002 0.1297 7050.1255 -2088.6606)" gradientUnits="userSpaceOnUse">
		<stop  offset="0" style="stop-color:#EE352C"/>
		<stop  offset="1" style="stop-color:#A91D22"/>
	</radialGradient>
	<path class="st2" d="M3297.2-631.9c0,0-7.7,12.2-0.4,30.4c4.6,11.2,17.8,24.8,32.9,38.8c0,0,155.7,151.8,174.5,173.5
		c86,99.3,123.4,197.2,126.9,332.3c2.1,86.7-14.3,163-55.2,251.5c-72.8,158.7-226.3,334-463.1,528.5l34.6-11.5
		c22.4-16.8,52.8-34.6,124.2-73.8c164.7-90.2,350.1-173.1,577.4-258.5C4176.5,256.1,4714.7,112,5021.1,65.1l31.9-4.9l-4.9-7.7
		c-27.9-43.4-47.2-70.3-70.3-99c-67.1-83.3-148.6-150.8-248.4-206.7c-137.1-76.6-314.4-136.4-539-180.8
		c-42.3-8.4-135.3-24.5-210.9-36.1c-160.2-24.8-263.7-42-377.8-61.5c-40.9-7-102.1-17.5-142.7-26.2c-21-4.6-61.2-14-92.7-24.8
		C3341.3-592.5,3304.8-602.2,3297.2-631.9L3297.2-631.9z M3387.4-544.5c0.4-0.4,5.9,1.7,13.3,4.2c13.3,4.6,30.4,9.8,50.7,15.4
		c15.4,4.2,30.7,8.3,46.2,12.2c21,5.2,38.4,10.1,38.8,10.1c2.5,2.5,37.8,115.4,49.7,158.8c4.6,16.4,8,30.4,7.7,30.4
		c-0.4,0.4-4.2-5.6-8.8-13.6c-40.9-72-105.6-145.2-180.4-203.9C3394.8-537.8,3387.4-544.2,3387.4-544.5L3387.4-544.5z M3559.5-496.9
		c1.7,0,9.4,1,18.9,3.1c59.4,13.3,166.1,33.6,234.3,45.1c11.5,1.7,20.6,3.8,20.6,4.6c0,0.7-4.2,3.1-9.4,5.9
		c-11.5,5.9-58.1,33.6-73.4,44.1c-38.8,25.8-73.8,53.9-99,79.1c-10.1,10.1-18.9,18.5-18.9,18.5s-2.1-5.9-3.8-13.3
		c-12.6-48.6-38.8-120.6-62.6-171.4c-3.8-8-7-15.4-7-16.1C3559.1-496.6,3559.1-496.9,3559.5-496.9L3559.5-496.9z M3862.4-439.2
		c2.1,0.7,5.6,12.6,12.6,38.8c13,50.7,18.9,107.4,16.8,160.2c-0.7,14.7-1.4,28.3-2.1,30l-1,3.5l-18.2-5.9
		c-37.4-11.9-98.2-29.8-150.4-44.4c-29.8-8-53.9-15.4-53.9-16.1c0-2.1,43.4-45.5,61.9-61.9C3763.4-366.1,3859.2-440.2,3862.4-439.2
		L3862.4-439.2z M3886.5-435.8c1-1,144.8,23.7,210.2,36.3c48.6,9.4,119.3,24.1,123.4,25.8c2.1,0.7-5.2,4.9-28.7,15.4
		c-92.3,41.6-160.9,79.1-229.1,124.6c-17.8,11.9-32.9,21.6-33.2,21.6c-0.4,0-0.7-10.1-0.7-22.4c0-66.5-13.3-133.6-37.8-190.3
		C3888.2-430.1,3886.1-435.4,3886.5-435.8z M4258.3-362.3c1,1-3.5,29.4-7.7,46.2c-12.6,52.1-46.5,129.4-88.1,202.2
		c-7.3,13-14,23.5-14.7,23.7c-0.7,0.4-10.1-4.9-21-11.2c-40.5-23.7-86.7-46.2-137.1-67.1c-14-5.9-26.2-10.9-26.6-11.5
		c-2.5-2.1,110.2-76.6,169.7-112.3C4179.9-321,4256.9-363.7,4258.3-362.3L4258.3-362.3z M4284.9-358.1c3.1,0,66.8,17.5,100,27.3
		c82.2,24.5,176.6,59.1,238.1,87.1l25.6,11.5l-17.8,4.2c-150.4,34.6-279.1,74.5-403.2,124.8c-10.1,4.2-19.3,7.7-19.9,7.7
		s2.8-8,7.3-17.8c37.4-79.4,61.5-162.3,67.5-232.9C4282.8-352.9,4283.9-358.1,4284.9-358.1L4284.9-358.1z M3651.1-212.6
		c1-1,49.7,10.5,75.9,17.8c39.9,11.2,124.5,39.5,124.5,41.6c0,0.4-9.4,8.4-20.6,18.2c-45.8,38.1-89.8,78.3-142.7,129.4
		c-15.7,15.1-29,27.3-29.8,27.3c-0.7,0-1-2.1-0.7-4.9c8-58.8,6.3-134.3-4.9-210.9C3651.8-203.8,3650.8-212.2,3651.1-212.6z
		 M4672.7-211.5c0.7,0.7-22.4,37.1-37.1,57.7c-21,30-51.8,69.9-121.4,157.4c-36.7,46.2-78,98.2-91.7,115.8
		c-14,17.5-25.6,32.1-25.8,32.1c-0.4,0-4.9-6.3-9.8-14c-39.2-58.8-86-110.2-141.6-156.3c-10.5-8.8-22-18.2-25.8-21
		c-3.8-2.8-7-5.6-7-5.9c0-1,59.4-26.6,104.5-44.7c79.1-32.1,186.7-70.7,267.5-95.5C4626.9-199.3,4672-212.2,4672.7-211.5
		L4672.7-211.5z M4699.7-204.6c1.4-0.4,9.8,3.8,19.9,9.8c85,48.6,168.2,111.2,234,175.6c18.5,18.2,64.4,65.7,63.6,66.1
		c0,0-16.1,1.4-35,2.8c-147.3,11.2-335.7,42.3-516.9,86c-12.2,2.8-23.1,5.2-23.7,5.2s13-13.6,30-30
		c106.3-102.4,155-167.2,212.3-282.6C4692-188.8,4699-203.5,4699.7-204.6C4699.3-204.6,4699.3-204.6,4699.7-204.6L4699.7-204.6z
		 M3920.8-124.8c4.9,1,50.4,22.4,84.6,39.5c31.5,15.7,78.7,40.9,81.2,43c0.4,0.4-16.4,9.1-37.1,19.3c-65.7,32.9-122.1,64-180.8,99.7
		c-16.8,10.1-30.8,18.5-31.1,18.5c-1.4,0-1-1.4,8.4-18.5c31.5-57.3,56.7-125.9,71-192.8C3918.3-121.3,3919.7-124.8,3920.8-124.8
		L3920.8-124.8z M3875.3-116.5c1,1-10.9,44.1-18.2,67.5c-14.3,44.4-38.4,100-61.9,142c-5.6,9.8-14,24.1-18.5,32.1l-8.8,14
		l-19.6-18.9c-22.7-22-41.3-35.7-65-47.9c-9.4-4.9-16.8-9.1-16.8-9.8c0-2.8,59.8-57,105.6-96.1C3805-61.9,3874.2-117.5,3875.3-116.5
		L3875.3-116.5z M4153.4-2l17.2,11.2c39.2,25.6,85.4,59.4,120.6,89.2c19.9,16.4,58.4,51,66.1,59.4l4.2,4.6l-28.3,8
		c-160.2,44.4-284,83.9-428.4,137.1c-16.1,5.9-29.8,10.9-30.8,10.9c-2.1,0-3.8,1.7,32.1-31.5c92.3-85,174.2-178.7,235-270L4153.4-2
		L4153.4-2z M4080.2,16.1c0.7,0.7-47.2,68.2-75.9,106.3c-34.2,45.5-95.1,121.7-137.1,171.4c-17.5,20.6-32.5,37.8-33.2,38.1
		c-1,0.4-1.4-4.9-1.4-13c0-42.3-10.9-87.5-29.8-125.9c-8-16.1-9.4-19.9-7.7-21.6c6.7-5.9,108.4-64,172.8-98.6
		C4011.4,49.7,4079.2,15.5,4080.2,16.1L4080.2,16.1z M3638.2,124.6c1,0,9.1,4.2,18.2,9.1c22.4,12.2,42.3,25.8,60.2,40.5
		c0.7,0.7-8.4,8-20.3,16.8c-33.2,23.7-83.5,61.9-112.9,85.4c-30.8,24.5-31.9,25.2-28.3,19.9c23.1-35.3,34.6-55.2,46.8-80.8
		c10.9-22.7,21.6-49.7,29.4-73.1C3634,132.3,3637.5,124.6,3638.2,124.6L3638.2,124.6z M3756.1,216.9c1.7-0.4,3.8,2.8,13.3,16.8
		c19.9,29.8,35.3,69.6,39.2,101.8l0.7,7l-47.9,18.5c-85.7,33.2-164.7,66.1-218.2,90.6c-15.1,7-41.3,19.6-58.4,27.9
		c-17.2,8.8-31.1,15.4-31.1,15.1c0-0.4,10.9-8.4,24.1-18.2c104.6-75.9,195.1-159.2,263-242.3c7.3-8.8,14-16.8,14.7-17.2
		L3756.1,216.9L3756.1,216.9z M3701.9,230.2c1.4,1.4-38.4,46.5-65.7,74.1c-67.5,68.9-134.3,122.7-217.2,175.2
		c-10.5,6.7-19.9,12.6-21,13.3c-2.5,1.4,0.7-2.1,37.1-41.6c23.1-24.8,40.5-45.8,60.5-71.7c13.3-17.2,15.7-19.6,35-33.2
		C3581.9,309.2,3700.5,228.8,3701.9,230.2z"/>
</g>
<path class="st3" d="M1444,872.3c-3.6,0-7.3,0.4-11,0.4c-74.1,3.9-124.2,36.6-153.4,100.3c-25,57.6-22.3,133,0.3,190.9
	c26.2,56.7,68.6,86.6,139.3,97.9c15,2.5,25,10.7,54,44.5l35.7,41.8h64.7l-43-43.4c-23.7-23.7-43-44.4-43-46.4
	c0-1.8,9.1-5.8,20.1-9.2c36.3-11,66.5-39,87.6-82c17.1-34.5,19.6-45.2,21.9-88.1C1623.7,951.2,1556.2,871.3,1444,872.3L1444,872.3
	L1444,872.3z M1500.7,1206.5c-31.5,15.3-77.2,18.3-107,7.3c-30.8-11.3-60.8-43.4-74.1-79.6c-15-39.7-12.8-112.8,4.3-145.7
	c27.5-52.5,63.8-76.6,116.8-76.6c78.7,0,123.4,48.2,129.3,138.8C1574.6,1126.3,1549.3,1183,1500.7,1206.5L1500.7,1206.5z
	 M2618.5,981.5c-27.2,0-47.9,11-61.9,32.6l-11,17.2v-44.5h-46.9v267.2h46.9v-85.5c0-78.1,1-87.3,11.9-108.6
	c15.1-29.3,40.9-44,65.9-36.9l16.8,4.9v-46.4L2618.5,981.5L2618.5,981.5L2618.5,981.5z M2342.5,979c-9.2,0-19,1.2-28.7,3.3
	c-62.9,16.4-98.2,76.6-96.1,138.5c0,51.8,10.1,77.7,35.1,104.9c51.2,42.1,97.6,45.4,160.1,22.8c10.7-4.6,22.3-9.8,22.3-9.8v-42.1
	l-22.3,11.5c-50.6,22-88.7,22-119.3-3.9c-19.5-19.8-28-43.6-32-70.8H2451v-36.1C2451.1,1024.2,2406.9,977.8,2342.5,979L2342.5,979
	L2342.5,979z M2265.9,1096.2c0,0,7-45.8,32.9-63.8c12.5-8.8,26.8-13.1,40.8-13.1c14,0,28,4.6,39.7,13.4
	c23.7,18.3,27.8,63.1,27.8,63.1h-141.2L2265.9,1096.2L2265.9,1096.2L2265.9,1096.2z M1133.6,1048c-50.9-30.8-73.5-53.1-70.8-79.4
	c7.9-72.6,97.6-62.6,147.3-35.1l0.4-48.8c0,0-27.5-11.9-66.8-12.5c-60.4-1-99.4,18.9-117.7,59.1c-26.9,59.4-3.1,104.3,82.9,154.3
	c48.3,28,69.6,52.5,69.6,79.1c0,54.9-66.2,74.1-134.5,39.6c-14-7-25.9-12.9-26.6-12.9c-2.5,15.5-1.1,52.8-1.1,52.8s21,8.8,52.5,14.9
	c78,15.5,149.1-21.1,155.8-80.5C1230.3,1122.9,1210,1093.6,1133.6,1048L1133.6,1048L1133.6,1048z M3034.2,978.4
	c-9.2,0-18.9,1.2-29,3.4c-62.8,16.4-98.1,76.6-95.8,138.5c0,51.8,10,77.4,35,104.5c51.2,42.1,97.6,45.5,160.4,22.9
	c10.6-4.6,22.2-9.7,22.2-9.7v-42.2l-22.2,11.6c-50.7,21.9-88.8,21.9-119.2-4c-19.6-19.8-28-43.3-32-70.8h189v-36.1
	C3142.6,1023.6,3098.4,977.2,3034.2,978.4L3034.2,978.4L3034.2,978.4z M2957.6,1095.5c0,0,7.1-45.8,33-64.1
	c12.5-8.9,26.8-13.2,40.8-13.2c14,0,28,4.6,39.7,13.4c23.7,18.3,27.8,63.4,27.8,63.4h-141.2L2957.6,1095.5L2957.6,1095.5z
	 M2096.6,1048.6c-50.9-30.8-73.4-53.1-70.7-79.4c7.9-72.6,97.6-62.6,147.3-35.1l0.4-48.8c0,0-27.5-11.9-66.8-12.5
	c-60.4-1-99.4,18.9-117.7,59.1c-26.8,59.4-2.8,104.3,83,154.3c48.2,28,69.5,52.1,69.5,78.7c0,54.9-66.2,74.4-134.5,39.6
	c-14-7-25.8-12.8-26.6-12.8c-2.5,15.5-1.1,52.8-1.1,52.8s20.7,8.5,52.1,14.9c78.1,15.6,149.2-21,155.8-80.4
	C2193.1,1123.7,2172.9,1094.4,2096.6,1048.6L2096.6,1048.6L2096.6,1048.6z M3310.2,980.9c-27.2,0-48.2,11-61.9,32.7l-11,17.1v-44.4
	h-46.9v267.1h46.9v-85.6c0-78.1,1-87.3,11.9-108.5c15.1-29.3,40.9-44,65.9-36.9l16.8,4.9v-46.4H3310.2L3310.2,980.9z M1723.2,1047.1
	V876.8h-47.4v376.9h199.1v-44.5h-151.8L1723.2,1047.1L1723.2,1047.1z M2818.2,1100.1l-39,101.6l-37.6-102.1l-38.1-113.2h-48.5
	c31.4,89.1,65.6,179.6,100,267.4c15,0.4,29.9,0,44.8,0l52.7-132.4l53.7-135H2860C2860,986.4,2839.6,1040,2818.2,1100.1
	L2818.2,1100.1L2818.2,1100.1z M1832.3,774.1c7.6,0,14-2.5,19.3-7.7c5.2-5.2,7.9-11.3,7.9-18.9s-2.8-14-7.9-18.9
	c-5.2-4.9-11.3-7.3-18.9-7.3c-7.7,0-14,2.5-19.3,7.6c-5.2,5.2-7.6,11.5-7.6,18.9c0,7.7,2.5,14,7.6,18.9
	C1818.2,771.6,1824.6,774,1832.3,774.1L1832.3,774.1L1832.3,774.1z M1815.5,730.7c4.6-4.6,10.1-6.7,17.2-6.7
	c6.7,0,12.2,2.1,16.8,6.7s7,10.1,7,16.8s-2.5,12.5-7,17.1c-4.6,4.6-10.1,6.7-16.8,6.7c-6.8,0-12.2-2.1-16.8-6.7
	c-4.6-4.6-7-10.4-7-17.1C1808.8,740.8,1810.9,735.3,1815.5,730.7z M1826.7,750h3.1c2.2,0,4.3,2.1,6.1,6.1l3.7,8.3h5.7l-4.6-9.2
	c-1.8-3.6-3.6-5.8-5.8-6.4c2.7-0.7,4.9-1.5,6.4-3.3c1.5-1.5,2.1-3.7,2.1-6.1c0-2.8-0.9-4.9-2.8-6.4c-2.1-1.7-5.4-2.7-9.8-2.7h-9.7
	v34h4.9v-14.3L1826.7,750L1826.7,750z M1826.7,734.2h4.3c3.1,0,5.2,0.7,6.4,1.5c1.1,1,1.4,2.1,1.4,4.3c0,3.9-2.5,5.8-7,5.8h-5.2
	L1826.7,734.2L1826.7,734.2L1826.7,734.2z M1044.5,746.9c0-11.9-0.4-20.7-0.7-25.9h0.3c1.2,6.1,2.8,10.8,3.9,13.7l45.5,101.6h7.6
	l45.5-102.4c1.2-2.8,2.5-7,3.9-12.9h0.4c-1,10.1-1.2,19-1.2,25.9v89.7h15.5V703.4h-19.6l-41.8,92.7c-1.5,3.6-3.7,9.2-6.4,16.4h-0.7
	c-1-3.6-3.1-9.1-6.1-15.8l-40.8-93.7h-20.7v133.2h15v-89.4H1044.5L1044.5,746.9z M1199.5,747.2h13.4v83h-13.4V747.2z M1206.1,716.8
	c2.8,0,5.2-1,7-2.8s3.1-4.2,3.1-7c0-2.8-1-5.2-3.1-7c-1.9-1.8-4.3-2.8-7.1-2.8s-5.2,1-7,2.8s-3.1,4.3-3.1,7c0,3.1,1,5.2,3.1,7
	C1201.2,715.8,1203.4,716.8,1206.1,716.8L1206.1,716.8L1206.1,716.8z M1308.6,832v-14.6c-7.3,5.5-15.3,8.2-23.5,8.2
	c-9.8,0-17.7-3.3-23.6-9.8c-5.7-6.4-8.9-15.3-8.9-26.2c0-11.5,3.1-20.7,9.4-27.7c6.1-6.7,14-10.1,23.7-10.1c7.9,0,15.5,2.5,22.6,7.3
	v-15.5c-6.4-3.3-13.7-4.9-21.9-4.9c-15.3,0-27.2,4.9-36.1,14.3c-8.8,9.4-13.4,22.3-13.4,37.8c0,13.7,3.9,25.4,12.2,34.2
	c8.6,9.1,19.6,13.7,32.9,13.7C1292.7,838.5,1301.2,836.3,1308.6,832L1308.6,832z M1347,787.8c0-11,2.5-19.8,7-25.8
	c4.3-5.5,9.4-8.3,15.5-8.3c5.2,0,8.9,1,11.5,3.1v-15.9c-2.1-1-5.2-1.2-9.1-1.2c-5.5,0-10.4,1.8-14.7,5.2c-4.6,3.6-8.2,9.1-10.3,16.1
	h-0.4v-19.4h-15.3v95.1h15.3v-48.8H1347z M1434.6,838.5c14.3,0,25.8-4.6,34.4-13.7c8.5-9.1,12.8-21.4,12.8-36.6
	c0-15.5-3.9-27.5-11.9-36.3c-7.9-8.9-18.9-13.2-33.2-13.2s-25.8,4.3-34.4,12.5c-9.2,9.1-14,21.9-14,38.4c0,14.3,3.9,26.2,12.2,35.1
	C1409,833.9,1420.2,838.5,1434.6,838.5L1434.6,838.5L1434.6,838.5z M1412.9,761c5.8-6.1,13.4-9.2,22.9-9.2c9.8,0,17.2,3.1,22.6,9.2
	c5.5,6.4,8.2,15.5,8.2,27.8c0,11.6-2.5,20.7-7.6,26.9c-5.2,6.4-12.8,9.8-22.9,9.8c-9.8,0-17.4-3.4-23.2-9.8
	c-5.7-6.4-8.5-15.3-8.5-26.9C1403.7,777.2,1406.8,767.7,1412.9,761L1412.9,761z M1548.6,830.2c5.8-5.2,8.9-11.5,8.9-19.6
	c0-7-2.5-12.8-7-17.4c-3.7-3.6-9.4-7-17.7-10.4c-7.3-3.1-11.9-5.8-14.3-7.9c-2.5-2.5-3.9-5.5-3.9-9.8c0-3.9,1.5-7,4.6-9.4
	c3.1-2.5,7-3.6,12.2-3.6c8.2,0,15.3,2.2,21.6,6.8v-15.3c-6.2-3.1-12.9-4.6-20.5-4.6c-9.8,0-18,2.7-24.1,7.9
	c-6.4,5.2-9.4,11.9-9.4,19.8c0,7,2.1,12.8,6.1,17.1c3.3,3.6,9.1,7.3,17.1,10.7c7.6,3.3,12.8,6.4,15.5,8.9c2.8,2.5,3.9,5.5,3.9,9.1
	c0,8.9-6.1,13.4-17.9,13.4c-9.2,0-17.4-3.1-24.7-9.1v16.4c6.7,4,14.6,5.8,23.5,5.8C1533.6,838.5,1542.4,835.7,1548.6,830.2
	L1548.6,830.2L1548.6,830.2z M1621.2,738.7c-14.3,0-25.8,4.3-34.4,12.5c-9.1,9.1-14,21.9-14,38.4c0,14.3,3.9,26.2,12.2,35.1
	c8.6,9.2,19.8,13.7,34.1,13.7c14.7,0,25.8-4.6,34.4-13.8c8.6-9.1,12.9-21.4,12.9-36.6c0-15.5-4-27.5-11.9-36.3
	C1646.3,742.9,1635.2,738.6,1621.2,738.7L1621.2,738.7L1621.2,738.7z M1650.8,788.7c0,11.6-2.5,20.7-7.6,26.9
	c-5.2,6.4-12.8,9.8-22.9,9.8c-9.8,0-17.4-3.4-23.2-9.8c-5.7-6.4-8.5-15.3-8.5-26.9c0-12.2,3.1-21.6,9.2-28
	c5.7-6.1,13.4-9.2,22.9-9.2c9.4,0,17.1,3.1,22.5,9.2C1648,767.3,1650.8,776.5,1650.8,788.7L1650.8,788.7L1650.8,788.7z M1692,836.3
	h15.3v-82.4h22.3v-12.8h-22.3v-14.7c0-13.4,5.2-20,15.8-20c3.6,0,7.2,1,10,2.5v-13.7c-2.8-1.2-6.4-1.5-11-1.5
	c-8.2,0-15,2.5-20.4,7.6c-6.4,6.1-9.8,14-9.8,24.7v15.5h-16.1v12.8h16.1L1692,836.3L1692,836.3z M1754.5,810.4c0,18.6,8.2,28,25,28
	c6.1,0,10.7-1,14.3-3.1v-13.1c-2.8,2.1-6.1,3.1-9.8,3.1c-5.2,0-8.8-1.2-11-4c-2.2-2.8-3.4-7.3-3.4-13.7v-53.6h24.1v-12.8h-24v-28
	c-5.2,1.8-10.4,3.3-15.3,4.9v23.2H1738v12.8h16.4L1754.5,810.4L1754.5,810.4z M3391.3,985.7c-5.2-4.9-11.3-7.3-18.9-7.3
	c-7.7,0-14,2.5-19.3,7.7c-5.2,5.2-7.6,11.5-7.6,18.9c0,7.6,2.5,14,7.6,18.9c5.1,4.9,11.5,7.3,19.3,7.3c7.6,0,14-2.5,19.3-7.6
	c5.2-5.2,7.9-11.3,7.9-18.9C3399.3,997,3396.5,990.6,3391.3,985.7L3391.3,985.7z M3388.9,1021.8c-4.6,4.6-10.1,6.7-16.8,6.7
	s-12.2-2.1-16.8-6.7c-4.6-4.6-7-10.4-7-17.2c0-6.7,2.1-12.2,6.7-16.8c4.6-4.6,10-6.7,17.1-6.7c6.7,0,12.2,2.1,16.8,6.7
	c4.6,4.6,7,10.1,7,16.8C3395.8,1011.7,3393.7,1017.1,3388.9,1021.8z M3375.1,1006.2c2.8-0.7,4.9-1.8,6.4-3.3
	c1.5-1.6,2.1-3.7,2.1-6.2c0-2.8-0.9-4.9-2.8-6.4c-2.1-1.7-5.5-2.7-9.8-2.7h-9.7v34.1h4.9v-14.3h3.1c2.1,0,4.2,2.1,6.1,6.1l3.6,8.2
	h5.8l-4.6-9.2C3378.8,1008.5,3376.9,1006.7,3375.1,1006.2L3375.1,1006.2L3375.1,1006.2z M3371.8,1003.1h-5.2v-11.5h4.3
	c3.1,0,5.2,0.6,6.4,1.5s1.5,2.1,1.5,4.3C3378.8,1001.3,3376.4,1003.1,3371.8,1003.1L3371.8,1003.1L3371.8,1003.1z M2520.9,737.2h4.3
	v-34.1h11.3v-4.3h-26.9v4.3h11.3L2520.9,737.2L2520.9,737.2z M2546.8,711.5c0-3.3,0-6-0.3-7.6c0.3,1.8,1,3.1,1.1,3.9l13.2,29.3h2.1
	l13.2-29.6c0.4-1,0.7-2.1,1.2-3.6c-0.3,3.1-0.3,5.5-0.3,7.3v25.8h4.6v-38.4h-5.5l-11.9,26.6c-0.3,1-1.2,2.8-1.8,4.9h-0.4
	c-0.3-1.2-0.9-2.5-1.7-4.6l-11.9-26.9h-6.2v38.4h4.3v-25.7L2546.8,711.5L2546.8,711.5z"/>
</svg>
