<?xml version="1.0" encoding="utf-8"?>
<!-- Generator: Adobe Illustrator 19.0.0, SVG Export Plug-In . SVG Version: 6.00 Build 0)  -->
<svg version="1.1" id="Layer_1" xmlns="http://www.w3.org/2000/svg" xmlns:xlink="http://www.w3.org/1999/xlink" x="0px" y="0px"
	 viewBox="0 0 131 126" style="enable-background:new 0 0 131 126;" xml:space="preserve">
<style type="text/css">
	.st0{fill:#FFFFFF;}
</style>
<g id="XMLID_54_">
	<path id="XMLID_55_" class="st0" d="M104.3,63L104.3,63l6.3-10.9v0L99.6,11.3L58.8,22.2h0l0,0v0l-0.1,0l-6.3,10.9h0l-12.6,0l0,0v0
		L10.1,63l29.8,29.8l0,0l0,0h12.6l0,0l6.3,10.9l0,0h0v0l40.8,10.9l10.9-40.8v0l0,0v0l0-0.1L104.3,63z M53.5,34.9L85,26.5L66.8,58
		H30.5L53.5,34.9z M53.5,91.1L30.5,68.1h36.4L85,99.6L53.5,91.1z M93.8,94.5L75.6,63l18.2-31.5l8.4,31.5L93.8,94.5z"/>
</g>
</svg>
